<?xml version="1.0" encoding="UTF-8" standalone="no"?>
<svg width="100%" viewBox="0 0 588 497" version="1.1" xmlns="http://www.w3.org/2000/svg">
	<title>ica-nara-splash</title>
	<g>
	<path
		d="M259.952694,496.613554 C253.376792,496.613554 250.627732,488.109987 250.038987,483.084288 L246.271494,450.855246 C245.492831,444.196255 243.408484,440.818093 240.070679,440.818093 C236.607054,440.818093 232.400376,443.96598 231.070952,445.174331 L199.957676,473.559913 C195.010319,478.077582 191.435117,480.178547 188.70505,480.178547 C187.190455,480.178547 185.884771,479.528079 185.020645,478.350589 C182.383162,474.756395 184.650306,466.661151 185.407603,464.263439 L192.935467,440.450127 C193.543204,438.531958 194.03699,435.934833 192.949711,434.446352 C191.893294,433.002977 189.478964,432.791694 188.135296,432.791694 C187.140602,432.791694 186.411793,432.903271 186.3382,432.91514 L127.318884,443.085236 C118.696618,444.573716 112.519544,442.940424 109.001317,438.313553 C103.842676,431.523993 106.712808,420.883851 106.838629,420.439918 L113.374173,396.93997 C114.193194,393.996245 114.055503,391.774208 112.96585,390.342702 C111.301696,388.149152 107.614918,387.982974 106.522891,387.982974 C106.226144,387.982974 106.036226,387.99247 106.002991,387.997218 L68.983273,390.874472 C67.9410993,390.959935 66.9725188,390.995545 66.0704095,390.995545 C60.1378537,390.995545 56.225548,389.302903 54.4403212,385.965098 C51.2591988,380.020673 56.5982616,371.716519 57.2178683,370.788296 L73.5864045,346.27941 C75.314656,343.687033 75.8511737,341.59319 75.1888355,340.047734 C74.1941413,337.752103 70.5477204,336.655328 69.3488646,336.455914 L33.0128508,330.316823 C25.7722366,329.091854 21.2237064,326.235965 19.4930809,321.822752 C16.611079,314.463439 23.0587867,305.969367 23.3341674,305.60615 L37.3619674,287.402533 C38.5988067,285.800102 39.0997148,284.26889 38.8931792,282.725809 C38.5370834,280.05509 36.1583636,278.177278 36.1322499,278.153539 L7.79177346,256.602622 C1.86871358,252.094449 -0.697550032,247.733463 0.161827793,243.633613 C1.56247121,236.960378 11.3907148,234.408359 12.5064816,234.1401 L46.1883949,226.016368 C50.4520484,224.988438 52.9684586,223.348024 53.6687803,221.14023 C54.8913758,217.275404 50.6087305,212.252079 50.5636251,212.202226 L36.1061362,195.7506 C33.8769766,193.212824 33.0579563,190.701162 33.672815,188.286833 C34.6603873,184.398267 38.9786422,182.707999 39.4676804,182.529951 L65.436559,172.981836 C69.652733,171.431632 72.271224,169.176359 73.2208128,166.282487 C74.8778452,161.237797 71.1720751,155.535517 71.1340915,155.478541 L54.7679293,130.972029 C51.4301248,125.974819 50.5873648,121.851229 52.2633889,118.717586 C54.6468567,114.256893 61.1325479,113.774977 63.8103882,113.774977 C64.2780607,113.774977 64.5534414,113.791595 64.5534414,113.791595 L97.1480755,115.550708 C101.850914,115.792853 105.359644,114.643851 107.698007,112.117945 C111.577077,107.92551 111.1189,101.32112 111.114152,101.254649 L109.485607,80.2141363 C109.269576,77.3796139 109.81559,75.2287953 111.116526,73.8257779 C112.14683,72.7123851 113.594953,72.1236401 115.301839,72.1236401 C117.564234,72.1236401 119.658077,73.1563179 119.888352,73.2726425 L145.332583,86.2131633 C147.846619,87.4903601 150.199225,88.1384545 152.328678,88.1384545 C160.312346,88.1384545 163.474476,78.8111189 163.505338,78.71616 L175.930707,40.9415193 C179.463177,30.2087923 185.618886,27.955893 190.162668,27.955893 C196.95935,27.955893 202.998734,32.9792175 203.252749,33.192875 L222.045111,49.0177716 C223.991768,50.6581862 225.760377,51.4890764 227.303459,51.4890764 C231.116057,51.4890764 233.183787,46.0882903 233.202779,46.033689 L245.891658,11.0864487 C248.562377,3.72950984 252.125709,0 256.479573,0 C262.853688,0 267.701338,8.32077149 268.233108,9.27036024 L286.510318,41.8792382 C289.800643,47.7500707 293.382966,50.7270314 297.159955,50.7270314 C302.399311,50.7270314 307.384652,44.9582797 308.866011,42.733868 L327.876778,14.1607423 C330.962941,9.52200126 333.863935,7.26672796 336.748311,7.26672796 C342.723598,7.26672796 344.532565,16.6344211 344.717734,17.7003344 L349.686458,46.1832492 C351.151198,54.5776138 354.496125,58.6584715 359.911154,58.6584715 C365.295323,58.6584715 370.722222,54.7556617 370.776824,54.7153042 L401.617093,32.2931397 C405.785787,29.2615776 409.683849,27.7232438 413.20445,27.7232438 C424.188817,27.7232438 427.030462,41.7605396 427.146786,42.3564065 L432.678141,70.9627678 C433.608738,75.7843047 436.049181,78.125041 440.139535,78.1226671 C442.468401,78.1226671 444.44592,77.3440043 444.467285,77.3345084 L474.847004,64.9186354 C477.83346,63.6984138 480.240668,63.1049209 482.206317,63.1049209 C485.176155,63.1049209 486.650392,64.4818246 487.364957,65.6355749 C489.71519,69.4434258 486.745351,75.8317842 486.128118,77.0733715 L474.291494,100.796473 C472.905095,103.581142 472.632088,105.729586 473.489092,107.177709 C474.761541,109.33565 478.517164,109.964752 479.735012,110.014605 L522.578083,111.797458 C530.818139,112.141684 536.159576,114.610615 538.459955,119.140153 C542.296293,126.684636 535.722765,136.683806 535.442636,137.106373 L520.714515,159.162946 C519.133449,161.527422 518.523339,163.431347 519.031369,164.385684 C519.650975,165.53706 522.202995,166.064082 524.311082,166.064082 L566.470449,163.868158 C567.420038,163.81593 568.303155,163.792191 569.136419,163.792191 C576.127767,163.792191 580.208624,165.472963 581.609268,168.934214 C583.98324,174.800298 576.640544,182.328163 575.147316,183.77866 L547.820526,210.238951 C543.701684,214.229598 541.916458,217.989969 542.524194,221.415611 C543.566368,227.317305 551.414719,230.968473 551.49306,231.004083 L579.517798,243.500671 C585.227201,246.045569 588,248.970302 588,252.452919 C588,257.993769 580.386672,261.549979 579.517798,261.934563 L547.457308,276.232996 C543.445296,278.018222 541.246998,280.123935 540.924137,282.483663 C540.446969,285.933045 544.041162,289.764635 545.465546,290.946873 L570.465844,311.524462 C575.32299,315.519856 577.196054,318.992977 576.198986,322.136116 C574.644034,327.024124 566.795683,327.84077 565.238357,327.954721 L517.326857,331.489565 C510.976482,331.95249 507.083168,333.557295 506.076604,336.121184 C504.58575,339.919539 509.169889,346.065753 510.893393,347.926947 L534.051489,372.732579 C539.100927,378.138113 540.924137,382.992886 539.461771,387.156832 C537.078303,393.948766 527.100499,395.591554 525.970488,395.752984 L501.243197,399.356674 C494.465507,400.344246 494.361053,407.000863 494.361053,407.288114 L494.28746,431.915698 C494.261346,442.619938 486.902033,443.776062 483.737528,443.776062 C481.069184,443.776062 478.875634,443.042505 478.783049,443.009269 L444.783024,431.516871 C442.257118,430.662241 439.914007,430.227804 437.822538,430.227804 C426.173458,430.227804 424.585271,443.970728 424.5188,444.554725 L422.605378,463.351834 C422.000015,469.322373 418.833137,470.217361 417.000431,470.217361 C414.232379,470.217361 411.658994,468.066542 411.374117,467.822023 L382.960048,443.334503 C379.465561,440.329055 376.244081,438.804965 373.385819,438.804965 C366.152327,438.804965 362.676832,448.768525 362.643596,448.870606 L351.50492,481.6148 C349.33511,487.996036 346.130248,491.23176 341.978171,491.23176 C336.532279,491.23176 332.083456,485.277838 331.594418,484.601256 L315.254369,461.946443 C312.500562,458.126722 309.450008,456.187187 306.192918,456.187187 C301.041399,456.187187 296.666169,460.949375 296.623438,460.999228 L271.119858,489.714792 C266.996269,494.355907 263.342726,496.613554 259.952694,496.613554"
		id="ica-nara-splash"></path>
	</g>
</svg>